<svg id="f7e01b52-fe13-4534-b7fc-d479bcd2a427" data-name="Layer 1" xmlns="http://www.w3.org/2000/svg" viewBox="0 0 911.56 709.29"><defs><style>.cls-1{font-size:71.11px;}.cls-1,.cls-10,.cls-11,.cls-12,.cls-13{font-family:CenturyGothic-Bold, Century Gothic;font-weight:700;}.cls-2{fill:#e9d351;}.cls-3{fill:#96cebc;}.cls-4{fill:#f5e682;}.cls-5{fill:#f1db48;}.cls-6{fill:#e3979d;}.cls-7{fill:#e18086;}.cls-8{fill:#616160;}.cls-9{fill:#978c94;}.cls-10,.cls-11,.cls-12{font-size:27.71px;}.cls-10{fill:#35785f;}.cls-11{fill:#6b131b;}.cls-12{fill:#83741a;}.cls-13{font-size:19.64px;fill:#1d1d1b;}</style></defs><text class="cls-1" transform="translate(160.02 61.08)">¿Cuál es tu perfil <tspan x="-46.27" y="85.33">como inversionista?</tspan></text><path class="cls-2" d="M590.93,459.08l-3,5.61c-.28.05-.56.11-.85.15-4.54-5.94-11.06-9.47-16.89-13.85-1.78-1.34-4.13-2.1-4.84-4.59A130.18,130.18,0,0,1,590.93,459.08Z" transform="translate(-38.49 -41.17)"/><path class="cls-2" d="M564.71,446.24l-2.17-.9A2.24,2.24,0,0,1,564.71,446.24Z" transform="translate(-38.49 -41.17)"/><path class="cls-3" d="M395.88,522.25C385,529.59,374,536.88,364.53,546.16c-30.23,29.68-46.87,65.53-49.19,107.91-.35,6.22-1.8,7.76-8,7.78q-28.81.07-57.61,0c-6.33,0-7.91-1.54-7.69-7.8,1.94-54.14,20.58-101.87,55.28-143.4.83-1,1.63-2,2.45-3,6.52.57,12.56,3.09,18.86,4.55,6.48,1.51,8.49-.53,7-7-1.41-6.31-3.83-12.38-4.51-18.86,12.23-10.12,24.63-20,38.91-27.23.84,1.58,1.64,3.18,2.52,4.73Z" transform="translate(-38.49 -41.17)"/><path class="cls-4" d="M395.88,522.25l-33.31-58.49c-.88-1.55-1.68-3.15-2.52-4.73,18.93-11.5,39.4-19.26,60.87-24.28,47.94-11.23,94.91-7.76,140.82,10.05a4.16,4.16,0,0,1,.8.54l2.17.9a.45.45,0,0,1,.61.16c.71,2.49,3.06,3.25,4.84,4.59,5.83,4.38,12.35,7.91,16.89,13.85-.78,1.59-1.49,3.22-2.37,4.75q-15,26.31-30.12,52.59c-12.56-6.1-25.17-12.06-38.83-15.42-40.53-9.95-79.32-5.52-116.32,13.92C398.27,521.28,397.06,521.73,395.88,522.25Z" transform="translate(-38.49 -41.17)"/><path class="cls-4" d="M362.23,731.44q21.82-38,43.67-76,26.39-45.8,52.84-91.55c.89-1.54,1.93-3,2.91-4.45a35.06,35.06,0,0,1,3,3.84q36.19,62.72,72.27,125.5c10.76,18.83-3,42.58-24.85,42.66C462.09,731.63,412.16,731.46,362.23,731.44ZM487.37,638h0c.33-6.82.79-13.62.94-20.44.19-8.49-5.3-14.29-13.18-14.24s-13.44,5.95-13.11,14.39c.57,14.12,1.35,28.23,2.26,42.33.47,7.15,4.73,11.23,11,11.19s10.51-4.51,10.92-11.83C486.65,652.29,487,645.15,487.37,638ZM475.06,696a13.52,13.52,0,0,0-13.38,13.8,13.66,13.66,0,0,0,14.05,13.67,13.74,13.74,0,0,0-.67-27.47Z" transform="translate(-38.49 -41.17)"/><path class="cls-5" d="M362.23,731.44c49.93,0,99.86.19,149.8,0,21.81-.08,35.61-23.83,24.85-42.66Q501,625.9,464.61,563.28a35.06,35.06,0,0,0-3-3.84c1.13-4,3.43-7.4,5.8-10.64,4.34-5.94,12.63-5.17,16.66,1.55,6.1,10.18,11.93,20.53,17.86,30.81l87.57,151.69a29.19,29.19,0,0,1,1.86,3.43,9.93,9.93,0,0,1-7.79,13.94,30.27,30.27,0,0,1-4.86.22l-207,0c-3.28,0-6.54.07-9.37-2C357,744.56,357,738.42,362.23,731.44Z" transform="translate(-38.49 -41.17)"/><path class="cls-6" d="M554.56,522.18q15.06-26.29,30.12-52.59c.88-1.53,1.59-3.16,2.37-4.75.29,0,.57-.1.85-.15A207.8,207.8,0,0,1,615.65,492a231.2,231.2,0,0,1,53.81,124.43c1.31,12.13-6.36,24-18.33,25.86a47.42,47.42,0,0,1-16.5-.24c-1.62-7.62-2.8-15.36-4.93-22.84-11.45-40.41-35.2-71.68-70.71-94.07C557.48,524.22,556,523.18,554.56,522.18Z" transform="translate(-38.49 -41.17)"/><path class="cls-7" d="M634.63,642.08a47.42,47.42,0,0,0,16.5.24c12-1.81,19.64-13.73,18.33-25.86A231.2,231.2,0,0,0,615.65,492a207.8,207.8,0,0,0-27.75-27.34l3-5.61c40,22.79,70.47,54.77,91.7,95.51a223.7,223.7,0,0,1,25.73,98.79c.19,7.29-1.12,8.56-8.39,8.57q-28.1,0-56.18,0c-6.78,0-8.35-1.5-8.73-8.22C634.84,649.85,634.77,646,634.63,642.08Z" transform="translate(-38.49 -41.17)"/><path class="cls-3" d="M304.74,722.77a27.24,27.24,0,1,1-27.48-27A27.14,27.14,0,0,1,304.74,722.77Z" transform="translate(-38.49 -41.17)"/><path class="cls-6" d="M673.1,695.91a27.07,27.07,0,1,1-27.32,26.75A27,27,0,0,1,673.1,695.91Z" transform="translate(-38.49 -41.17)"/><path class="cls-8" d="M321.14,486.26c.68,6.48,3.1,12.55,4.51,18.86,1.45,6.52-.56,8.56-7,7-6.3-1.46-12.34-4-18.86-4.55l-27.67-7.68c-6.29-1.75-7.25-5-2.69-9.6q17.17-17.28,34.45-34.44c4.61-4.58,7.79-3.64,9.58,2.71C316,467.82,318.57,477,321.14,486.26Z" transform="translate(-38.49 -41.17)"/><path class="cls-9" d="M487.37,638c-.37,7.13-.72,14.27-1.12,21.4-.41,7.32-4.56,11.79-10.92,11.83s-10.54-4-11-11.19c-.91-14.1-1.69-28.21-2.26-42.33-.33-8.44,5.28-14.34,13.11-14.39s13.37,5.75,13.18,14.24c-.15,6.82-.61,13.62-.94,20.44Z" transform="translate(-38.49 -41.17)"/><path class="cls-9" d="M475.06,696a13.74,13.74,0,0,1,.67,27.47,13.66,13.66,0,0,1-14.05-13.67A13.52,13.52,0,0,1,475.06,696Z" transform="translate(-38.49 -41.17)"/><text class="cls-10" transform="translate(0 404.39)">CONSERVADOR</text><text class="cls-11" transform="translate(682.36 404.39)">ARRIESGADO</text><text class="cls-12" transform="translate(328.03 248.55)">MODERADO</text><text class="cls-13" transform="translate(16.47 446.77)">No le gusta asumir<tspan x="23.94" y="23.56">ningún riesgo</tspan></text><text class="cls-13" transform="translate(260.01 287.04)">Cauteloso, dispuesto a obtener<tspan x="-9.62" y="23.56">mejores rendimientos asumiendo</tspan><tspan x="61.65" y="47.13">un poco de riesgo</tspan></text><text class="cls-13" transform="translate(628.8 446.77)">Asume el riesgo para obtener<tspan x="42.61" y="23.56">el mejor rendimiento</tspan></text></svg>