<svg id="Capa_1" data-name="Capa 1" xmlns="http://www.w3.org/2000/svg" viewBox="0 0 2008.28 1562.65"><defs><style>.cls-1{font-size:156.66px;}.cls-1,.cls-10,.cls-11,.cls-12,.cls-13{font-family:CenturyGothic-Bold, Century Gothic;font-weight:700;}.cls-2{fill:#e9d451;}.cls-3{fill:#97cfbc;}.cls-4{fill:#f5e782;}.cls-5{fill:#f2dc48;}.cls-6{fill:#e4989e;}.cls-7{fill:#e18087;}.cls-8{fill:#616160;}.cls-9{fill:#978d95;}.cls-10,.cls-11,.cls-12{font-size:61.04px;}.cls-10{fill:#36785f;}.cls-11{fill:#6b131c;}.cls-12{fill:#84741a;}.cls-13{font-size:43.26px;fill:#1d1d1b;}</style></defs><text class="cls-1" transform="translate(352.55 134.57)">¿Cuál es tu perfil <tspan x="-101.93" y="188">como inversionista?</tspan></text><path class="cls-2" d="M544,395.78l-6.66,12.37-1.87.33c-10-13.1-24.37-20.88-37.21-30.53-3.93-2.95-9.12-4.62-10.67-10.1A285.38,285.38,0,0,1,544,395.78Z" transform="translate(673.13 524.94)"/><path class="cls-2" d="M486.2,367.5l-4.78-2A5,5,0,0,1,486.2,367.5Z" transform="translate(673.13 524.94)"/><path class="cls-3" d="M114.24,535C90.15,551.11,66,567.17,45.18,587.64-21.42,653-58.08,732-63.21,825.36c-.75,13.71-4,17.11-17.66,17.15q-63.46.16-126.93,0c-13.94,0-17.42-3.4-16.93-17.19C-220.46,706-179.4,600.88-102.95,509.39c1.83-2.19,3.6-4.44,5.4-6.67,14.36,1.26,27.68,6.8,41.55,10,14.29,3.32,18.71-1.18,15.51-15.54-3.1-13.9-8.44-27.27-9.94-41.56,27-22.3,54.27-44.09,85.73-60,1.85,3.47,3.61,7,5.56,10.41Q77.52,470.53,114.24,535Z" transform="translate(673.13 524.94)"/><path class="cls-4" d="M114.24,535Q77.55,470.53,40.86,406.09c-2-3.42-3.71-6.94-5.56-10.41,41.7-25.35,86.8-42.43,134.1-53.51,105.63-24.74,209.11-17.1,310.24,22.14a9.7,9.7,0,0,1,1.78,1.19l4.78,2a1,1,0,0,1,1.34.35c1.55,5.48,6.74,7.15,10.67,10.1,12.84,9.65,27.2,17.43,37.21,30.53-1.73,3.49-3.3,7.07-5.23,10.45q-33.14,58-66.36,115.86c-27.67-13.44-55.45-26.57-85.55-34C289,478.89,203.53,488.66,122,531.5,119.51,532.81,116.83,533.81,114.24,535Z" transform="translate(673.13 524.94)"/><path class="cls-4" d="M40.1,995.81q48.11-83.71,96.22-167.43,58.13-100.89,116.42-201.7c1.95-3.37,4.25-6.54,6.39-9.8,2.19,2.81,4.76,5.4,6.52,8.46q79.74,138.18,159.23,276.49c23.7,41.5-6.69,93.81-54.75,94C260.12,996.24,150.11,995.87,40.1,995.81ZM315.81,790h.09c.72-15,1.74-30,2.07-45,.42-18.7-11.69-31.49-29-31.38s-29.62,13.1-28.88,31.71c1.24,31.1,3,62.19,5,93.25,1,15.76,10.41,24.74,24.24,24.66,14-.08,23.15-9.93,24.06-26.07C314.21,821.44,315,805.71,315.81,790ZM288.69,917.63c-16.56.16-29.57,13.57-29.48,30.4a30.1,30.1,0,0,0,31,30.12c16.18-.45,29.66-14.71,29.28-31A30.62,30.62,0,0,0,288.69,917.63Z" transform="translate(673.13 524.94)"/><path class="cls-5" d="M40.1,995.81c110,.06,220,.43,330,0,48.06-.18,78.45-52.49,54.75-94Q345.74,763.31,265.65,625.34c-1.76-3.06-4.33-5.65-6.52-8.46,2.5-8.77,7.57-16.3,12.79-23.44,9.57-13.09,27.82-11.39,36.7,3.42,13.44,22.44,26.28,45.23,39.36,67.88q96.47,167.09,192.91,334.19a64.16,64.16,0,0,1,4.1,7.55c5.74,14-2.22,28.29-17.16,30.72a65.87,65.87,0,0,1-10.71.48l-456.1,0c-7.2,0-14.38.15-20.62-4.39C28.6,1024.72,28.47,1011.21,40.1,995.81Z" transform="translate(673.13 524.94)"/><path class="cls-6" d="M463.83,534.79Q497,476.88,530.19,418.93c1.93-3.38,3.5-7,5.23-10.45l1.87-.33c22.4,18,42.49,38.37,61.13,60.23a505.53,505.53,0,0,1,80.67,130.18,501.78,501.78,0,0,1,37.89,144c2.87,26.72-14,53-40.38,57a104.57,104.57,0,0,1-36.36-.52c-3.56-16.79-6.18-33.85-10.85-50.32-25.25-89-77.56-157.94-155.79-207.25C470.28,539.29,467.08,537,463.83,534.79Z" transform="translate(673.13 524.94)"/><path class="cls-7" d="M640.24,799a104.57,104.57,0,0,0,36.36.52c26.37-4,43.25-30.25,40.38-57a501.78,501.78,0,0,0-37.89-144,505.53,505.53,0,0,0-80.67-130.18c-18.64-21.86-38.73-42.22-61.13-60.23L544,395.78C632.06,446,699.21,516.44,746,606.19c35.51,68.12,54.72,140.71,56.7,217.66.41,16.06-2.48,18.86-18.5,18.88q-61.87.09-123.75,0c-14.94,0-18.4-3.31-19.24-18.11C640.71,816.07,640.55,807.51,640.24,799Z" transform="translate(673.13 524.94)"/><path class="cls-3" d="M-86.56,976.72a59.8,59.8,0,0,1-59.78,60.37c-33.06.08-60.33-27.15-60.25-60.15.09-32.63,26.88-59.56,59.49-59.79A59.66,59.66,0,0,1-86.56,976.72Z" transform="translate(673.13 524.94)"/><path class="cls-6" d="M725,917.54a59.64,59.64,0,1,1-1.28,119.27c-32.66-.44-59.3-27.73-58.92-60.34A59.73,59.73,0,0,1,725,917.54Z" transform="translate(673.13 524.94)"/><path class="cls-8" d="M-50.43,455.65c1.5,14.29,6.84,27.66,9.94,41.56,3.2,14.36-1.22,18.86-15.51,15.54-13.87-3.23-27.19-8.77-41.55-10l-60.95-16.93c-13.86-3.84-16-11-5.93-21.14q37.83-38.07,75.9-75.88c10.15-10.09,17.16-8,21.11,6C-61.7,415-56.09,435.35-50.43,455.65Z" transform="translate(673.13 524.94)"/><path class="cls-9" d="M315.81,790c-.82,15.71-1.6,31.44-2.48,47.15-.91,16.14-10.05,26-24.06,26.07-13.83.08-23.22-8.9-24.24-24.66-2-31.06-3.74-62.15-5-93.25-.74-18.61,11.63-31.59,28.88-31.71s29.46,12.68,29,31.38c-.33,15-1.35,30-2.07,45Z" transform="translate(673.13 524.94)"/><path class="cls-9" d="M288.69,917.63a30.62,30.62,0,0,1,30.75,29.53c.38,16.28-13.1,30.54-29.28,31a30.1,30.1,0,0,1-31-30.12C259.12,931.2,272.13,917.79,288.69,917.63Z" transform="translate(673.13 524.94)"/><text class="cls-10" transform="translate(0 890.92)">CONSERVADOR</text><text class="cls-11" transform="translate(1503.33 890.92)">ARRIESGADO</text><text class="cls-12" transform="translate(722.68 547.58)">MODERADO</text><text class="cls-13" transform="translate(36.29 984.3)">No le gusta asumir<tspan x="52.75" y="51.91">ningún riesgo</tspan></text><text class="cls-13" transform="translate(572.83 632.39)">Cauteloso, dispuesto a obtener<tspan x="-21.2" y="51.91">mejores rendimientos asumiendo</tspan><tspan x="135.82" y="103.82">un poco de riesgo</tspan></text><text class="cls-13" transform="translate(1385.33 984.3)">Asume el riesgo para obtener<tspan x="93.88" y="51.91">el mejor rendimiento</tspan></text></svg>